<svg width="27" height="28" viewBox="0 0 27 28" fill="none" xmlns="http://www.w3.org/2000/svg">
<path d="M8.33398 27.3337C7.60065 27.3337 6.97287 27.0726 6.45065 26.5503C5.92843 26.0281 5.66732 25.4003 5.66732 24.667C5.66732 23.9337 5.92843 23.3059 6.45065 22.7837C6.97287 22.2614 7.60065 22.0003 8.33398 22.0003C9.06732 22.0003 9.69509 22.2614 10.2173 22.7837C10.7395 23.3059 11.0007 23.9337 11.0007 24.667C11.0007 25.4003 10.7395 26.0281 10.2173 26.5503C9.69509 27.0726 9.06732 27.3337 8.33398 27.3337ZM21.6673 27.3337C20.934 27.3337 20.3062 27.0726 19.784 26.5503C19.2618 26.0281 19.0007 25.4003 19.0007 24.667C19.0007 23.9337 19.2618 23.3059 19.784 22.7837C20.3062 22.2614 20.934 22.0003 21.6673 22.0003C22.4007 22.0003 23.0284 22.2614 23.5507 22.7837C24.0729 23.3059 24.334 23.9337 24.334 24.667C24.334 25.4003 24.0729 26.0281 23.5507 26.5503C23.0284 27.0726 22.4007 27.3337 21.6673 27.3337ZM7.20065 6.00033L10.4007 12.667H19.734L23.4007 6.00033H7.20065ZM5.93398 3.33366H25.6007C26.1118 3.33366 26.5007 3.56144 26.7673 4.01699C27.034 4.47255 27.0451 4.93366 26.8006 5.40033L22.0673 13.9337C21.8229 14.3781 21.4951 14.7225 21.084 14.967C20.6729 15.2114 20.2229 15.3337 19.734 15.3337H9.80065L8.33398 18.0003H24.334V20.667H8.33398C7.33398 20.667 6.57843 20.2281 6.06732 19.3503C5.55621 18.4725 5.53398 17.6003 6.00065 16.7337L7.80065 13.467L3.00065 3.33366H0.333984V0.666992H4.66732L5.93398 3.33366Z" fill="#FFF081"/>
</svg>
